<svg xmlns="http://www.w3.org/2000/svg" xmlns:xlink="http://www.w3.org/1999/xlink" width="1340" height="924" viewBox="0 0 1340 924">
  <defs>
    <clipPath id="clip-path">
      <rect id="Rectangle_1" data-name="Rectangle 1" width="1340" height="924" transform="translate(0.499 -0.129)" fill="none"/>
    </clipPath>
  </defs>
  <g id="Objects" transform="translate(744.506 -81.555)">
    <g id="Group_4" data-name="Group 4" transform="translate(-745.006 81.685)">
      <g id="Group_3" data-name="Group 3" transform="translate(0 0)">
        <g id="Group_2" data-name="Group 2" clip-path="url(#clip-path)">
          <path id="Path_1" data-name="Path 1" d="M422.677,292.622C266.348,383.8,166.308,481.578-26.713,480.213c-183.879-1.3-360.969-18.512-526.533,80.376-240.441,143.613-330.672,581.3,12.379,664.74,375.678,91.375,716.58-170.341,1081.2-186.8,168.7-7.614,365.963,24.144,490.961-117.613,89.146-101.1,118.492-253.9,101.527-384.74C1086.291,177.324,690.627,136.349,422.677,292.622Z" transform="translate(701.787 164.801)" fill="#f3f4f9"/>
          <path id="Path_2" data-name="Path 2" d="M106.331,315.426c-92.227,35.739-154,78.1-259.915,65.908-100.9-11.619-196.958-30.7-294.793,8.3C-590.461,446.276-670.584,657.267-488,719c199.947,67.6,405.454-41.43,606.858-27.8,93.186,6.309,199.306,33.784,277.858-28.831,56.02-44.658,82.81-118.448,82.628-184.141C478.851,298.044,264.407,254.167,106.331,315.426Z" transform="translate(1044.112 329.576)" fill="#ff9624"/>
          <path id="Path_3" data-name="Path 3" d="M-361.537,894.756q-12.149,0-24.251-.721c-62.362-3.713-118.486-21.769-162.31-52.218-66.593-46.267-100.785-117.86-98.884-207.033,2.065-96.831,42.184-189.556,104.7-241.985C-464,327.151-366.4,341.741-272,355.851c20.8,3.108,42.3,6.323,62.83,8.487,98.223,10.385,199.649-6.833,297.737-23.479,141.521-24,287.855-48.839,427.657,8.442,79.228,32.461,122.843,94.14,122.816,173.675C639,629.316,559.709,745.028,458.528,786.4c-103.861,42.464-203.5,25.574-308.992,7.691-14.226-2.411-28.933-4.905-43.522-7.22C6.9,771.15-60.8,801.376-139.208,836.373c-21.191,9.458-43.108,19.242-66.689,28.6A424.225,424.225,0,0,1-361.537,894.756ZM-392.043,345.3c-53.335,0-104.534,11.118-149.278,48.642-62.2,52.164-102.114,144.463-104.17,240.873-1.892,88.654,32.079,159.809,98.243,205.781,86.693,60.231,223.652,69.469,340.807,22.99l.274.691-.274-.691c23.551-9.345,45.45-19.119,66.629-28.575,78.617-35.1,146.5-65.392,246.058-49.613,14.6,2.318,29.308,4.813,43.537,7.223,105.282,17.85,204.72,34.708,308.182-7.6C558.628,743.86,637.51,628.756,637.549,522.976c.027-78.892-43.26-140.079-121.889-172.3-139.4-57.114-285.531-32.324-426.844-8.35-98.184,16.661-199.717,33.879-298.145,23.5-20.556-2.172-42.08-5.388-62.892-8.5C-312.165,351.354-352.687,345.3-392.043,345.3Z" transform="translate(938.931 378.911)" fill="#fff"/>
        </g>
      </g>
    </g>
  </g>
</svg>
