<svg xmlns="http://www.w3.org/2000/svg" width="632.374" height="606.781" viewBox="0 0 632.374 606.781">
  <g id="Group_36" data-name="Group 36" transform="translate(-241.078 -121.703)">
    <path id="Path_1" data-name="Path 1" d="M775.043,347.032c0,10.147-112.976,18.372-252.34,18.372s-252.34-8.225-252.34-18.372S383.34,328.66,522.7,328.66,775.043,336.885,775.043,347.032Z" transform="translate(51.376 363.081)" fill="#f3f4f9" style="mix-blend-mode: multiply;isolation: isolate"/>
    <path id="Path_2" data-name="Path 2" d="M550.312,157.65c-40.115,28.962-64.651,57.28-117.455,64.775-50.3,7.137-99.2,10.054-141.622,41.3-61.6,45.387-73.691,157.633,22.481,164.415C419.036,435.57,504.705,356.808,603.9,337.93c45.9-8.734,100.733-8.858,130.828-49.1,21.465-28.7,25.1-67.8,16.7-99.571C728.405,102.121,619.07,108.008,550.312,157.65Z" transform="translate(3.803 0)" fill="#f3f4f9"/>
    <g id="Group_35" data-name="Group 35" transform="translate(241.078 173.135)">
      <g id="Group_2" data-name="Group 2" transform="translate(448.938 165.467)">
        <path id="Path_3" data-name="Path 3" d="M437.7,201.711c-7.6,1.9-19.936,14.058-11.7,38.963s7.61,34.543,8.561,49,46.626,26.811,48.361,2.11-19.534-29.073-17.49-49.708S467.557,194.255,437.7,201.711Z" transform="translate(-370.385 -200.45)" fill="#1c5baa"/>
        <path id="Path_4" data-name="Path 4" d="M577.525,231.818a2.933,2.933,0,0,0-3.446-2.316l-45.552,8.91-42.4-15.714c-.132-.047-.275-.085-.416-.13l-.044-.113L468.041,219.4l-19.724,3.179a9.28,9.28,0,0,0-5.641,2.757l-30.521,31.637-.661.683a6.325,6.325,0,0,0-.713,7.88l27.062,40.746a2.937,2.937,0,0,0,3.633,1.06,2.907,2.907,0,0,0,1.7-2.468l43.125,0c5.605-34.8,7.167-55.743,7.489-60.828l31.987,8.4.862.226a5.251,5.251,0,0,0,3.2-.168l45.841-17.377A2.941,2.941,0,0,0,577.525,231.818ZM441.139,299.325,425.566,264.14,442.274,250.1C446.868,267.545,443.128,285.936,441.139,299.325Z" transform="translate(-394.144 -167.204)" fill="#223451"/>
        <g id="Group_1" data-name="Group 1" transform="translate(86.214 29.302)">
          <path id="Path_5" data-name="Path 5" d="M520.232,272.565c11.579-22.071,3.024-48.574-19.165-58.3-18.727-8.208-44.133.1-55.369,18.168a43.7,43.7,0,0,0-4.674,37.157,16.79,16.79,0,0,1-.631,12.216l-2.473,7.062a4.2,4.2,0,0,0,2.058,5.225l33.609,16.358a4.522,4.522,0,0,0,5.591-1.507l4.531-6.258a17.4,17.4,0,0,1,9.6-7.533A46.158,46.158,0,0,0,520.232,272.565Z" transform="translate(-431.342 -211.089)" fill="#ff9624"/>
          <path id="Path_6" data-name="Path 6" d="M481.784,265.124l4.769-4.582L440.663,238.2l-1,6.417L438.6,244.1l-.9,5.993-1.03-.5-1.3,9.1,37.2,18.108,6.834-6.406-1.03-.5,4.478-4.249Z" transform="translate(-435.37 -163.52)" fill="#dadce0"/>
          <path id="Path_7" data-name="Path 7" d="M489.354,253.067a5.4,5.4,0,0,1-2.413-.573c-2.774-1.35-3.118-3.977-3.424-6.294-.281-2.135-.523-3.977-2.416-4.9-1.911-.931-3.611-.019-5.578,1.041-2.1,1.129-4.481,2.413-7.236,1.074-2.771-1.347-3.118-3.977-3.421-6.3-.281-2.132-.523-3.975-2.413-4.9-1.911-.928-3.614-.017-5.58,1.041-2.1,1.129-4.479,2.416-7.233,1.074-2.771-1.347-3.115-3.975-3.418-6.294-.278-2.132-.521-3.975-2.413-4.9a.909.909,0,0,1,.8-1.633c2.771,1.347,3.115,3.975,3.421,6.294.278,2.135.521,3.977,2.41,4.9,1.909.928,3.611.014,5.578-1.041,2.1-1.132,4.476-2.421,7.236-1.074s3.118,3.975,3.421,6.294c.281,2.135.523,3.977,2.413,4.9,1.912.928,3.608.017,5.578-1.041,2.1-1.129,4.5-2.413,7.236-1.074,2.774,1.35,3.118,3.977,3.424,6.3.281,2.135.523,3.977,2.416,4.9,1.925.937,3.614.019,5.58-1.038,2.1-1.132,4.49-2.418,7.239-1.071a.91.91,0,0,1-.8,1.636c-1.912-.931-3.611-.019-5.58,1.038A10.473,10.473,0,0,1,489.354,253.067Z" transform="translate(-421.458 -192.966)" fill="#fff"/>
        </g>
        <path id="Path_8" data-name="Path 8" d="M474.921,234.093l-6.321-6.252-2.4-8.44h9.965l1.918,4.246.392,8.79Z" transform="translate(-295.075 -167.204)" fill="#ff9a83"/>
        <path id="Path_9" data-name="Path 9" d="M446.684,237.762c9.431-.953,9.277-11.566,7.586-26.376-1.4-12.246-23.908-12.4-24-.174-.008,1.217-.028,2.573-.019,4.008h0l0,.008a61.228,61.228,0,0,0,.5,8.073c.611,10.626,1.019,24.489-1.733,27.8-3.732,4.49-2.129,8.134,6.784,9.045,8.886.906,14.532-3.578,9.646-7.55-3.1-2.518-3.181-9.549-2.738-14.86A18.941,18.941,0,0,0,446.684,237.762Z" transform="translate(-363.585 -197.519)" fill="#ff9a83"/>
        <path id="Path_10" data-name="Path 10" d="M454.6,206.568c-3.961-5.707-6.533-6.252-8.459-3.842a3.4,3.4,0,0,0-.267.457c-.248-.154-.507-.309-.8-.457-2.636-1.328-8.541-.9-14.251,3.616s-4.239,14.009-.669,13.631c2.493-.264,14.248-5.823,17.289-11.075,2.619,3.214,6.944,6.4,7.564,8.409C455.669,219.469,457.9,211.316,454.6,206.568Z" transform="translate(-363.838 -198.829)" fill="#1c5baa"/>
        <path id="Path_11" data-name="Path 11" d="M433.092,209.046c1.162,3.159,2.553,5.919-.8,6.473s-5.316-3.123-5.167-5.911C427.314,206.143,432.161,206.512,433.092,209.046Z" transform="translate(-363.627 -188.825)" fill="#ff9a83"/>
        <path id="Path_12" data-name="Path 12" d="M467.277,250.436l-24.429,89.652a62.487,62.487,0,0,1-17.617,29.122h0L412.823,354.4l22.151-103.967Z" transform="translate(-388.711 -112.762)" fill="#8bbbef"/>
        <path id="Path_13" data-name="Path 13" d="M433.874,252.121l-6.7-3.28-7.425,2.216,1.966,4.788,4.9-.3,6.894.413Z" transform="translate(-376.558 -115.555)" fill="#ff9a83"/>
        <path id="Path_14" data-name="Path 14" d="M457.486,250.436l7.561,92.776a59.95,59.95,0,0,1-4.528,26.9l-.273.658-18.531-10.456L426.152,250.433Z" transform="translate(-365.327 -112.762)" fill="#8bbbef"/>
        <path id="Path_15" data-name="Path 15" d="M459.923,290.119c-2.757,17-18.986,111.911-18.986,111.911H429.311s-3.663-72.011,9.056-114.522Z" transform="translate(-360.644 -47.718)" fill="#8bbbef"/>
        <path id="Path_16" data-name="Path 16" d="M455.75,284.749c-4.894,17.006-39.536,122.121-39.536,122.121H404.587s5.39-72.011,23.456-114.522Z" transform="translate(-403.16 -52.558)" fill="#8bbbef"/>
        <path id="Path_17" data-name="Path 17" d="M441.769,329.086s12.274,6,20.84,6.071l.876,4.019H428.347l1.567-10.089Z" transform="translate(-361.476 25.226)" fill="#223451"/>
        <path id="Path_18" data-name="Path 18" d="M417.122,329.086s2.449,3.168,10.169,6.071l.876,4.019h-24.1l1.427-10.089Z" transform="translate(-404.069 25.226)" fill="#223451"/>
      </g>
      <g id="Group_30" data-name="Group 30" transform="translate(159.421 38.872)">
        <g id="Group_3" data-name="Group 3" transform="translate(8.912)">
          <rect id="Rectangle_1" data-name="Rectangle 1" width="324.409" height="494.29" rx="11.015" transform="translate(12.2 0.001)" fill="#163a52"/>
          <path id="Path_19" data-name="Path 19" d="M626.6,184.829v433.62a30.444,30.444,0,0,1-30.339,30.339H332.533a30.488,30.488,0,0,1-30.34-30.339V184.829a30.428,30.428,0,0,1,30.34-30.339H596.262A30.4,30.4,0,0,1,626.6,184.829Z" transform="translate(-302.193 -154.489)" fill="#1c5baa"/>
          <path id="Path_20" data-name="Path 20" d="M626.6,184.448v57.209L310.627,638.97a30.1,30.1,0,0,1-8.434-20.9V531.93L602.2,154.706A30.455,30.455,0,0,1,626.6,184.448Z" transform="translate(-302.193 -154.108)" fill="#2e6fb7"/>
          <path id="Path_21" data-name="Path 21" d="M598.59,205.932v64.583L369.539,558.537H318.16Z" transform="translate(-274.181 -64.239)" fill="#2e6fb7"/>
          <path id="Path_22" data-name="Path 22" d="M385.245,330.621a14.761,14.761,0,1,1-14.761-14.761A14.76,14.76,0,0,1,385.245,330.621Z" transform="translate(-208.281 128.617)" fill="#163a52"/>
          <path id="Path_23" data-name="Path 23" d="M372.67,166.313a7.079,7.079,0,1,1-7.079-7.079A7.078,7.078,0,0,1,372.67,166.313Z" transform="translate(-203.388 -146.164)" fill="#8bbbef"/>
          <path id="Path_24" data-name="Path 24" d="M374.247,164.2a3.767,3.767,0,1,1-3.765-3.768A3.765,3.765,0,0,1,374.247,164.2Z" transform="translate(-188.999 -144.056)" fill="#163a52"/>
        </g>
        <g id="Group_29" data-name="Group 29" transform="translate(0 33.299)">
          <g id="Group_6" data-name="Group 6" transform="translate(8.913)" opacity="0.2" style="mix-blend-mode: multiply;isolation: isolate">
            <g id="Group_4" data-name="Group 4" transform="translate(0 74.889)">
              <rect id="Rectangle_2" data-name="Rectangle 2" width="302.587" height="11.448" fill="#185293"/>
              <rect id="Rectangle_3" data-name="Rectangle 3" width="302.587" height="11.448" transform="translate(0 96.07)" fill="#185293"/>
              <rect id="Rectangle_4" data-name="Rectangle 4" width="302.587" height="11.447" transform="translate(0 192.14)" fill="#185293"/>
              <rect id="Rectangle_5" data-name="Rectangle 5" width="302.587" height="11.448" transform="translate(0 288.21)" fill="#185293"/>
            </g>
            <g id="Group_5" data-name="Group 5" transform="translate(41.546)">
              <path id="Path_25" data-name="Path 25" d="M391.82,213.7h29.262V196.533h5.95V179.362h-76.9v17.172H330.514V213.7H391.82Z" transform="translate(-294.054 -144.152)" fill="#185293"/>
              <path id="Path_26" data-name="Path 26" d="M441.315,231.412V214.241H369.638v17.172h4.871v17.172h84.419V231.412Z" transform="translate(-225.416 -82.961)" fill="#185293"/>
              <path id="Path_27" data-name="Path 27" d="M418.506,322.815v-9.741h-66.5V271.215H328.663v69.553H426.77V323.6h-8.264Z" transform="translate(-297.301 16.994)" fill="#185293"/>
              <path id="Path_28" data-name="Path 28" d="M348.64,276.87h57.144V259.7H388.955v-6.82H317.277v6.82h4.088V276.87Z" transform="translate(-317.277 -15.177)" fill="#185293"/>
              <path id="Path_29" data-name="Path 29" d="M401.866,236.131h23.345V166.579H401.866v8.247H376.2v61.306h25.662Z" transform="translate(-213.895 -166.579)" fill="#185293"/>
              <path id="Path_30" data-name="Path 30" d="M377.088,201.458H366.9v6.531H348.946l-11.274,60.26,14.76,2.761h58.533V215.083H393.616V201.458Z" transform="translate(-281.496 -105.388)" fill="#185293"/>
              <path id="Path_31" data-name="Path 31" d="M340.143,252.978V211.736H320.712v41.241h19.431Z" transform="translate(-311.251 -87.355)" fill="#185293"/>
              <path id="Path_32" data-name="Path 32" d="M402.231,292.493V274.53H381.209v60.422h39.806v-42.46H402.231Z" transform="translate(-205.116 22.81)" fill="#185293"/>
              <path id="Path_33" data-name="Path 33" d="M432.819,285.824H417.3V245.818H389.321v-7.833H352.652V303H481.338V285.824H432.819Z" transform="translate(-255.215 -41.303)" fill="#185293"/>
            </g>
          </g>
          <g id="Group_7" data-name="Group 7" transform="translate(0 69.553)">
            <rect id="Rectangle_6" data-name="Rectangle 6" width="311.499" height="11.448" fill="#163a52"/>
            <rect id="Rectangle_7" data-name="Rectangle 7" width="311.499" height="11.447" transform="translate(0 96.07)" fill="#163a52"/>
            <rect id="Rectangle_8" data-name="Rectangle 8" width="311.499" height="11.448" transform="translate(0 192.14)" fill="#163a52"/>
            <rect id="Rectangle_9" data-name="Rectangle 9" width="311.499" height="11.448" transform="translate(0 288.21)" fill="#163a52"/>
          </g>
          <g id="Group_28" data-name="Group 28" transform="translate(37.009)">
            <g id="Group_8" data-name="Group 8" transform="translate(36.46 52.381)">
              <rect id="Rectangle_10" data-name="Rectangle 10" width="17.172" height="61.306" transform="translate(90.568 0) rotate(90)" fill="#ea8724"/>
              <rect id="Rectangle_11" data-name="Rectangle 11" width="15.176" height="28.264" transform="translate(90.568 0.998) rotate(90)" fill="#f3f4f9"/>
              <rect id="Rectangle_12" data-name="Rectangle 12" width="17.172" height="61.306" transform="translate(61.306 0) rotate(90)" fill="#ff9624"/>
            </g>
            <g id="Group_9" data-name="Group 9" transform="translate(56.08 35.209)">
              <rect id="Rectangle_13" data-name="Rectangle 13" width="17.172" height="52.053" transform="translate(76.898 0) rotate(90)" fill="#d63430"/>
              <rect id="Rectangle_14" data-name="Rectangle 14" width="15.176" height="23.764" transform="translate(76.898 0.998) rotate(90)" fill="#f3f4f9"/>
              <rect id="Rectangle_15" data-name="Rectangle 15" width="17.172" height="52.053" transform="translate(52.053 0) rotate(90)" fill="#f55147"/>
              <rect id="Rectangle_16" data-name="Rectangle 16" width="17.172" height="13.772" transform="translate(32.912 0) rotate(90)" fill="#f96a67"/>
            </g>
            <g id="Group_10" data-name="Group 10" transform="translate(149.093 148.451)">
              <rect id="Rectangle_17" data-name="Rectangle 17" width="17.171" height="57.144" transform="translate(84.419 0) rotate(90)" fill="#113142"/>
              <rect id="Rectangle_18" data-name="Rectangle 18" width="15.176" height="26.345" transform="translate(84.419 0.998) rotate(90)" fill="#f3f4f9"/>
              <rect id="Rectangle_19" data-name="Rectangle 19" width="17.171" height="57.144" transform="translate(57.144 0) rotate(90)" fill="#163a52"/>
            </g>
            <g id="Group_11" data-name="Group 11" transform="translate(31.363 288.21)">
              <rect id="Rectangle_20" data-name="Rectangle 20" width="8.901" height="69.553" fill="#8bbbef"/>
              <rect id="Rectangle_21" data-name="Rectangle 21" width="8.901" height="18.565" transform="translate(0 25.494)" fill="#163a52"/>
              <rect id="Rectangle_22" data-name="Rectangle 22" width="14.445" height="69.553" transform="translate(8.901)" fill="#68a3d8"/>
            </g>
            <g id="Group_12" data-name="Group 12" transform="translate(144.221 131.279)">
              <rect id="Rectangle_23" data-name="Rectangle 23" width="17.172" height="48.519" transform="translate(71.678 0) rotate(90)" fill="#68a3d8"/>
              <rect id="Rectangle_24" data-name="Rectangle 24" width="15.176" height="22.151" transform="translate(71.678 0.998) rotate(90)" fill="#f3f4f9"/>
              <rect id="Rectangle_25" data-name="Rectangle 25" width="17.172" height="48.519" transform="translate(48.519 0) rotate(90)" fill="#8bbbef"/>
              <rect id="Rectangle_26" data-name="Rectangle 26" width="17.172" height="12.837" transform="translate(30.678 0) rotate(90)" fill="#113142"/>
            </g>
            <g id="Group_13" data-name="Group 13" transform="translate(49.527 330.068)">
              <rect id="Rectangle_27" data-name="Rectangle 27" width="10.739" height="48.519" transform="translate(71.678 0) rotate(90)" fill="#d63430"/>
              <rect id="Rectangle_28" data-name="Rectangle 28" width="8.744" height="22.151" transform="translate(71.678 0.998) rotate(90)" fill="#f3f4f9"/>
              <rect id="Rectangle_29" data-name="Rectangle 29" width="10.739" height="48.519" transform="translate(48.519 0) rotate(90)" fill="#f55147"/>
              <rect id="Rectangle_30" data-name="Rectangle 30" width="10.739" height="12.837" transform="translate(30.678 0) rotate(90)" fill="#113142"/>
            </g>
            <g id="Group_14" data-name="Group 14" transform="translate(4.087 244.521)">
              <rect id="Rectangle_31" data-name="Rectangle 31" width="17.172" height="57.144" transform="translate(84.419 0) rotate(90)" fill="#d63430"/>
              <rect id="Rectangle_32" data-name="Rectangle 32" width="15.176" height="26.345" transform="translate(84.419 0.998) rotate(90)" fill="#f3f4f9"/>
              <rect id="Rectangle_33" data-name="Rectangle 33" width="17.172" height="57.144" transform="translate(57.144 0) rotate(90)" fill="#f55147"/>
              <path id="Path_34" data-name="Path 34" d="M327.676,261.71a5.083,5.083,0,1,1-5.082-5.085A5.084,5.084,0,0,1,327.676,261.71Z" transform="translate(-307.505 -253.124)" fill="#d63430"/>
            </g>
            <g id="Group_15" data-name="Group 15" transform="translate(162.31 8.247)">
              <rect id="Rectangle_34" data-name="Rectangle 34" width="17.172" height="61.306" fill="#ff9624"/>
              <rect id="Rectangle_35" data-name="Rectangle 35" width="17.172" height="8.737" rx="0.125" transform="translate(0 17.247)" fill="#163a52"/>
              <rect id="Rectangle_36" data-name="Rectangle 36" width="17.172" height="8.737" rx="0.125" transform="translate(0 28.695)" fill="#163a52"/>
              <rect id="Rectangle_37" data-name="Rectangle 37" width="14.389" height="61.306" transform="translate(17.172)" fill="#ea8724"/>
            </g>
            <g id="Group_16" data-name="Group 16" transform="translate(187.971)">
              <rect id="Rectangle_38" data-name="Rectangle 38" width="8.901" height="69.553" fill="#163a52"/>
              <rect id="Rectangle_39" data-name="Rectangle 39" width="8.901" height="18.565" transform="translate(0 25.494)" fill="#8bbbef"/>
              <rect id="Rectangle_40" data-name="Rectangle 40" width="14.444" height="69.553" transform="translate(8.901)" fill="#113142"/>
            </g>
            <g id="Group_17" data-name="Group 17" transform="translate(56.176 102.601)">
              <path id="Path_35" data-name="Path 35" d="M358.683,266.85H340.368l-3.486-63.021H355.2Z" transform="translate(-325.608 -203.829)" fill="#68a3d8"/>
              <rect id="Rectangle_41" data-name="Rectangle 41" width="15.016" height="61.306" transform="translate(11.275 0) rotate(10.598)" fill="#8bbbef"/>
              <circle id="Ellipse_1" data-name="Ellipse 1" cx="4.609" cy="4.609" r="4.609" transform="translate(8.408 26.902)" fill="#f3f4f9"/>
            </g>
            <g id="Group_18" data-name="Group 18" transform="translate(85.408 96.07)">
              <rect id="Rectangle_42" data-name="Rectangle 42" width="10.185" height="69.553" fill="#ff9624"/>
              <rect id="Rectangle_43" data-name="Rectangle 43" width="10.185" height="28.595" transform="translate(0 20.479)" fill="#f55147"/>
              <rect id="Rectangle_44" data-name="Rectangle 44" width="16.528" height="69.553" transform="translate(10.185)" fill="#ea8724"/>
            </g>
            <g id="Group_19" data-name="Group 19" transform="translate(97.437 196.683)">
              <rect id="Rectangle_45" data-name="Rectangle 45" width="15.757" height="65.01" fill="#163a52"/>
              <rect id="Rectangle_46" data-name="Rectangle 46" width="9.378" height="38.689" transform="translate(3.19 13.161)" fill="#68a3d8"/>
              <rect id="Rectangle_47" data-name="Rectangle 47" width="20.912" height="65.01" transform="translate(15.757)" fill="#113142"/>
            </g>
            <g id="Group_20" data-name="Group 20" transform="translate(101.871 109.695)">
              <rect id="Rectangle_48" data-name="Rectangle 48" width="15.016" height="55.928" fill="#f55147"/>
              <rect id="Rectangle_49" data-name="Rectangle 49" width="12.583" height="55.928" transform="translate(15.016)" fill="#d63430"/>
            </g>
            <g id="Group_21" data-name="Group 21" transform="translate(176.093 297.34)">
              <rect id="Rectangle_50" data-name="Rectangle 50" width="11.438" height="60.422" fill="#f55147"/>
              <rect id="Rectangle_51" data-name="Rectangle 51" width="9.585" height="60.422" transform="translate(11.438)" fill="#d63430"/>
            </g>
            <g id="Group_22" data-name="Group 22" transform="translate(9.46 124.381)">
              <rect id="Rectangle_52" data-name="Rectangle 52" width="10.572" height="41.241" fill="#163a52"/>
              <rect id="Rectangle_53" data-name="Rectangle 53" width="10.572" height="14.686" transform="translate(0 13.277)" fill="#f3f4f9"/>
              <rect id="Rectangle_54" data-name="Rectangle 54" width="8.859" height="41.241" transform="translate(10.572)" fill="#113142"/>
            </g>
            <g id="Group_23" data-name="Group 23" transform="translate(193.248 315.302)">
              <rect id="Rectangle_55" data-name="Rectangle 55" width="12.324" height="42.46" fill="#163a52"/>
              <rect id="Rectangle_56" data-name="Rectangle 56" width="12.324" height="15.12" transform="translate(0 13.67)" fill="#8bbbef"/>
              <rect id="Rectangle_57" data-name="Rectangle 57" width="10.327" height="42.46" transform="translate(12.324)" fill="#113142"/>
            </g>
            <g id="Group_24" data-name="Group 24" transform="translate(125.067 204.515)">
              <rect id="Rectangle_58" data-name="Rectangle 58" width="20.142" height="57.177" fill="#ff9624"/>
              <rect id="Rectangle_59" data-name="Rectangle 59" width="20.142" height="4.005" transform="translate(0 29.643)" fill="#ea8724"/>
              <rect id="Rectangle_60" data-name="Rectangle 60" width="20.142" height="4.005" transform="translate(0 14.434)" fill="#ea8724"/>
              <rect id="Rectangle_61" data-name="Rectangle 61" width="20.142" height="4.005" transform="translate(0 22.039)" fill="#ea8724"/>
              <rect id="Rectangle_62" data-name="Rectangle 62" width="16.878" height="57.177" transform="translate(20.142)" fill="#ea8724"/>
            </g>
            <g id="Group_25" data-name="Group 25" transform="translate(154.445 244.521)">
              <rect id="Rectangle_63" data-name="Rectangle 63" width="17.172" height="48.519" transform="translate(71.678 0) rotate(90)" fill="#68a3d8"/>
              <rect id="Rectangle_64" data-name="Rectangle 64" width="15.176" height="22.151" transform="translate(71.678 0.998) rotate(90)" fill="#f3f4f9"/>
              <rect id="Rectangle_65" data-name="Rectangle 65" width="17.172" height="48.519" transform="translate(48.519 0) rotate(90)" fill="#8bbbef"/>
            </g>
            <g id="Group_26" data-name="Group 26" transform="translate(0 237.7)">
              <rect id="Rectangle_66" data-name="Rectangle 66" width="6.82" height="48.519" transform="translate(71.678 0) rotate(90)" fill="#68a3d8"/>
              <rect id="Rectangle_67" data-name="Rectangle 67" width="4.825" height="22.151" transform="translate(71.678 0.998) rotate(90)" fill="#f3f4f9"/>
              <rect id="Rectangle_68" data-name="Rectangle 68" width="6.82" height="48.519" transform="translate(48.519 0) rotate(90)" fill="#8bbbef"/>
            </g>
            <g id="Group_27" data-name="Group 27" transform="translate(45.05 340.591)">
              <rect id="Rectangle_69" data-name="Rectangle 69" width="17.171" height="57.144" transform="translate(84.419 0) rotate(90)" fill="#d3d6e2"/>
              <rect id="Rectangle_70" data-name="Rectangle 70" width="15.176" height="26.345" transform="translate(84.419 0.998) rotate(90)" fill="#f3f4f9"/>
              <rect id="Rectangle_71" data-name="Rectangle 71" width="17.171" height="57.144" transform="translate(57.144) rotate(90)" fill="#f3f4f9"/>
              <rect id="Rectangle_72" data-name="Rectangle 72" width="17.171" height="6.791" transform="translate(21.675 0) rotate(90)" fill="#8bbbef"/>
              <rect id="Rectangle_73" data-name="Rectangle 73" width="17.171" height="6.791" transform="translate(40.889) rotate(90)" fill="#8bbbef"/>
            </g>
          </g>
        </g>
      </g>
      <g id="Group_32" data-name="Group 32" transform="translate(86.816 161.854)">
        <path id="Path_36" data-name="Path 36" d="M362.183,243.468l-7.451-20.911L333.9,219.587,317.95,222.33a9.314,9.314,0,0,0-7.4,3.264l-21.024,24.784.532-4.71a2.958,2.958,0,0,0-5.663-1.482l-11.238,26.555a6.83,6.83,0,0,0,11.114,7.5l.917-.914,19.44-19.394a182.293,182.293,0,0,0,4.423,50.358h49.7S356.778,271.466,362.183,243.468Z" transform="translate(-272.557 -163.264)" fill="#8bbbef"/>
        <path id="Path_37" data-name="Path 37" d="M290.969,238.911,285.3,232.6l-6.048-6.978-4.923.95,5.911,9.178,7.415,5.381Z" transform="translate(-269.558 -152.672)" fill="#ff9a83"/>
        <g id="Group_31" data-name="Group 31" transform="translate(0 77.471)">
          <path id="Path_38" data-name="Path 38" d="M286.014,231.867s-3.052-3.895,7.61-2.675,24.55-.752,24.55-.752l1.917,5.98H286.98Z" transform="translate(-249.771 -225.204)" fill="#f3f4f9"/>
          <path id="Path_39" data-name="Path 39" d="M308.207,233.644s.642-3.633-9.541-3.355-25.759-3.024-25.759-3.024l1.914,5.98,34.083,3.038Z" transform="translate(-272.056 -227.265)" fill="#f3f4f9"/>
          <path id="Path_40" data-name="Path 40" d="M330.934,271.8H301.545a1.6,1.6,0,0,1-1.452-1.025l-12.926-40.332a.757.757,0,0,1,.793-1.027h29.392a1.606,1.606,0,0,1,1.452,1.027l12.924,40.332A.754.754,0,0,1,330.934,271.8Z" transform="translate(-247.12 -223.486)" fill="#f55147"/>
          <path id="Path_41" data-name="Path 41" d="M317.448,274.107l-30.59-3.735a1.613,1.613,0,0,1-1.295-1.016l-12.918-40.313c-.2-.625.251-1.1.953-1.019l30.587,3.738a1.613,1.613,0,0,1,1.295,1.016L318.4,273.091C318.6,273.716,318.147,274.2,317.448,274.107Z" transform="translate(-272.598 -225.952)" fill="#f55147"/>
          <path id="Path_42" data-name="Path 42" d="M303.571,271.8H299.15a1.934,1.934,0,0,1-1.749-1.234l-12.789-39.914a.91.91,0,0,1,.956-1.237h4.418a1.937,1.937,0,0,1,1.749,1.237l12.789,39.914A.908.908,0,0,1,303.571,271.8Z" transform="translate(-251.621 -223.486)" fill="#f55147"/>
        </g>
        <path id="Path_43" data-name="Path 43" d="M303.591,240.063l-6.474-1.7-12.363-.528,1.369,6.741,8.348,1.958,8.815-2.5Z" transform="translate(-251.27 -131.25)" fill="#ff9a83"/>
        <path id="Path_44" data-name="Path 44" d="M351.176,274.663l-.339-.8-20.052-47.593c-.107-.248-.229-.51-.358-.752a9.372,9.372,0,0,0-16.559,8.784l18.857,35.551-39.242.008a2.936,2.936,0,0,0-.468,5.834l50.871,8.244a6.739,6.739,0,0,0,7.291-9.271Z" transform="translate(-241.108 -161.606)" fill="#8bbbef"/>
        <path id="Path_45" data-name="Path 45" d="M317.795,251.815c-4.3-4.429-1.116-32.783-1.116-37.1l-2.556,2.575c-.887-3.5-2.126-6.834-3.11-9.569-4.3-11.951-24.131-3.256-23,9.574,1.308,14.838-.063,27.136,13.009,23.916-.132,4.834-1.124,10.04-4.5,12.161-6.55,4.118.444,8.775,11.951,7.833C320.023,260.254,322.32,256.475,317.795,251.815Z" transform="translate(-245.638 -194.054)" fill="#ff9a83"/>
        <path id="Path_46" data-name="Path 46" d="M323.07,212.592c-1.273-2.159-.454-6.343-.454-6.343a8.048,8.048,0,0,0-2.542-.65c-.052-.008-.074-.019-.132-.025-5.55-.543-4.269-6.3-4.269-6.3-3.592-.661-8.241,1.2-11.535,3.035-2.669,1.482-4.933-1.584-4.933-1.584s-3.721,1.876-5.024,4.991c-1.526,3.641-6.941,3.294-6.941,3.294-2.54,10.516,12.078,7.484,19.92,4.192.386,5.845,8.679,11.571,8.679,11.571C319.255,232.44,326.306,218.093,323.07,212.592Z" transform="translate(-247.426 -199.139)" fill="#223451"/>
        <path id="Path_47" data-name="Path 47" d="M297.088,209.947c-.487,3.523-1.292,6.693,2.187,6.374s4.666-4.581,3.917-7.373C302.263,205.471,297.476,207.126,297.088,209.947Z" transform="translate(-230.41 -185.374)" fill="#ff9a83"/>
        <path id="Path_48" data-name="Path 48" d="M355.519,359.7l.014-.017-3.6-107.889h-49.7l-23.09,96.282c-2.3,9.436-3.9,15.042-1.286,20.005,7.272,15.171,48.7,99.477,48.7,99.477l11.6-5.076s-12.879-68.094-35.435-104.573L322.45,296.25l4.572,48.579c.074.771.2,1.526.3,2.289l-.041-.016c1.931,17.647,18.876,129.508,18.876,129.508h12.064S365.724,404.023,355.519,359.7Z" transform="translate(-265.737 -106.766)" fill="#163a52"/>
        <path id="Path_49" data-name="Path 49" d="M306.881,333.359s-2.928,8.329-9.142,12.973c-2.479,1.851-6.834,2.749-10.015,3.556l.507,2.994H300.81l22.162-14.133-4.49-10.467Z" transform="translate(-246.061 27.43)" fill="#8bbbef"/>
        <path id="Path_50" data-name="Path 50" d="M316.05,333.413a55.392,55.392,0,0,1-20.73,6.3l-1.65,4.167h34.058l.386-10.469Z" transform="translate(-235.628 36.43)" fill="#8bbbef"/>
      </g>
      <g id="Group_33" data-name="Group 33" transform="translate(199.897)">
        <circle id="Ellipse_2" data-name="Ellipse 2" cx="38.873" cy="38.873" r="38.873" fill="#f55147"/>
        <path id="Path_51" data-name="Path 51" d="M344.656,161.715l-19.649-11.344v22.688Z" transform="translate(-293.733 -122.842)" fill="#f3f4f9"/>
      </g>
      <g id="Group_34" data-name="Group 34" transform="translate(0 121.594)">
        <path id="Path_52" data-name="Path 52" d="M241.078,184.522H354.052V243.2H341.8v21.839L315.691,243.2H241.078Z" transform="translate(-241.078 -184.522)" fill="#8bbbef"/>
        <rect id="Rectangle_74" data-name="Rectangle 74" width="93.196" height="5.131" transform="translate(9.889 11.625)" fill="#f3f4f9"/>
        <rect id="Rectangle_75" data-name="Rectangle 75" width="93.196" height="5.131" transform="translate(9.889 25.854)" fill="#f3f4f9"/>
        <rect id="Rectangle_76" data-name="Rectangle 76" width="67.314" height="5.131" transform="translate(35.771 40.083)" fill="#f3f4f9"/>
      </g>
    </g>
  </g>
</svg>
